<svg width="209" height="66" viewBox="0 0 209 66" fill="none" xmlns="http://www.w3.org/2000/svg">
<path d="M209 0.499969H0.0599976V65.0644H209V0.499969Z" fill="#192541"/>
<path d="M26.4645 22.8488C26.4645 23.2219 26.388 23.571 26.2397 23.8914C26.0915 24.2119 25.8858 24.5036 25.6371 24.7523C25.3884 25.0058 25.0967 25.2018 24.7667 25.3453C24.4367 25.4888 24.0828 25.5605 23.7098 25.5605C23.3367 25.5605 22.9876 25.4888 22.6672 25.3453C22.3467 25.2018 22.055 25.0058 21.8063 24.7523C21.5528 24.5036 21.3567 24.2119 21.2133 23.8914C21.0698 23.5662 20.998 23.2219 20.998 22.8488C20.998 22.4758 21.0698 22.1219 21.2133 21.7823C21.3567 21.4475 21.5528 21.151 21.8063 20.9023C22.055 20.6536 22.3467 20.4528 22.6672 20.3093C22.9924 20.1658 23.3367 20.0941 23.7098 20.0941C24.0828 20.0941 24.4319 20.1658 24.7667 20.3093C25.0967 20.4528 25.3884 20.6489 25.6371 20.9023C25.8858 21.1558 26.0915 21.4475 26.2397 21.7823C26.3928 22.1219 26.4645 22.4758 26.4645 22.8488ZM25.6084 29.6927V51.4915H21.7776V29.6927H25.6084V29.6927Z" fill="white"/>
<path d="M29.9509 51.4963V29.6974H32.2322C32.7774 29.6974 33.1218 29.9653 33.2652 30.4961L33.5665 32.8635C34.5135 31.8161 35.5704 30.9696 36.7422 30.3239C37.9091 29.6783 39.2625 29.3531 40.7977 29.3531C41.9886 29.3531 43.0408 29.5492 43.9495 29.9461C44.8581 30.3431 45.6185 30.9026 46.2307 31.6248C46.8381 32.3517 47.302 33.2222 47.6177 34.2409C47.9333 35.2595 48.0911 36.3834 48.0911 37.6173V51.4963H44.2603V37.6126C44.2603 35.9626 43.8825 34.6809 43.1316 33.7722C42.3808 32.8635 41.2282 32.4044 39.6786 32.4044C38.5452 32.4044 37.4882 32.677 36.503 33.2222C35.5178 33.7674 34.6139 34.5087 33.7818 35.4413V51.4963H29.9509Z" fill="white"/>
<path d="M58.0819 51.8407C56.3602 51.8407 55.0354 51.3624 54.1124 50.3963C53.1846 49.435 52.7254 48.0481 52.7254 46.2403V32.897H50.0998C49.8702 32.897 49.6742 32.83 49.5211 32.6913C49.3633 32.5574 49.282 32.3422 49.282 32.0552V30.5248L52.8546 30.0753L53.7345 23.3414C53.7632 23.1262 53.8541 22.9493 54.0119 22.8154C54.1698 22.6815 54.3706 22.6097 54.6145 22.6097H56.5515V30.1231H62.7927V32.9018H56.5515V45.9868C56.5515 46.9051 56.7715 47.589 57.221 48.029C57.6658 48.4737 58.2397 48.6985 58.9427 48.6985C59.3445 48.6985 59.6936 48.6459 59.9853 48.5359C60.2771 48.4259 60.5353 48.3111 60.7506 48.182C60.9658 48.0529 61.1475 47.9333 61.3005 47.8281C61.4536 47.7181 61.5827 47.6655 61.6975 47.6655C61.8984 47.6655 62.0753 47.7851 62.2379 48.029L63.357 49.8607C62.697 50.4776 61.8983 50.9607 60.9657 51.3146C60.0331 51.6637 59.0719 51.8407 58.0819 51.8407Z" fill="white"/>
<path d="M73.7495 29.3483C75.0551 29.3483 76.2604 29.5683 77.3651 30.0035C78.4699 30.4435 79.4216 31.0748 80.2299 31.8974C81.0333 32.7248 81.6598 33.7435 82.1142 34.9535C82.5637 36.1682 82.7933 37.5456 82.7933 39.0952C82.7933 39.6978 82.7264 40.0995 82.5972 40.3004C82.4681 40.5012 82.2242 40.6017 81.8655 40.6017H67.36C67.3887 41.979 67.5752 43.1795 67.9196 44.1981C68.2639 45.2168 68.7374 46.0681 69.34 46.7472C69.9426 47.4311 70.66 47.9381 71.4921 48.2729C72.3243 48.6124 73.2569 48.7798 74.2899 48.7798C75.2512 48.7798 76.0786 48.6698 76.7768 48.445C77.4703 48.225 78.0729 47.9811 78.5751 47.7229C79.0773 47.4646 79.4981 47.2255 79.8329 47.0007C80.1677 46.7807 80.4594 46.6659 80.7033 46.6659C81.019 46.6659 81.2629 46.7903 81.4351 47.0342L82.5111 48.4307C82.0377 49.0046 81.4686 49.502 80.8086 49.9276C80.1486 50.3533 79.4407 50.6976 78.6899 50.9702C77.939 51.2428 77.1595 51.4485 76.356 51.5824C75.5525 51.7163 74.7539 51.788 73.9647 51.788C72.4582 51.788 71.0713 51.5346 69.7991 51.0228C68.5317 50.5159 67.4318 49.765 66.5087 48.7846C65.5809 47.8042 64.8635 46.5846 64.347 45.1355C63.8305 43.6864 63.5722 42.0221 63.5722 40.1425C63.5722 38.6217 63.8066 37.2013 64.2705 35.8813C64.7344 34.5613 65.4088 33.4183 66.284 32.4474C67.1592 31.4813 68.2257 30.7209 69.493 30.1661C70.7508 29.6257 72.1713 29.3483 73.7495 29.3483ZM73.8356 32.1652C71.9847 32.1652 70.5261 32.7009 69.4691 33.7674C68.4074 34.8387 67.7474 36.3165 67.4891 38.2104H79.3451C79.3451 37.3208 79.2207 36.5078 78.9768 35.7665C78.7329 35.03 78.3742 34.3891 77.9008 33.8535C77.4273 33.3131 76.8486 32.9018 76.1695 32.6052C75.4904 32.3135 74.7108 32.1652 73.8356 32.1652Z" fill="white"/>
<path d="M89.5224 19.7928V51.4963H85.6915V19.7928H89.5224V19.7928Z" fill="white"/>
<path d="M98.9918 22.8488C98.9918 23.2219 98.9153 23.571 98.767 23.8914C98.6188 24.2119 98.4131 24.5036 98.1644 24.7523C97.9157 25.0058 97.624 25.2018 97.294 25.3453C96.964 25.4888 96.6101 25.5605 96.2371 25.5605C95.864 25.5605 95.5149 25.4888 95.1945 25.3453C94.874 25.2018 94.5823 25.0058 94.3336 24.7523C94.0801 24.5036 93.8841 24.2119 93.7406 23.8914C93.5971 23.5662 93.5254 23.2219 93.5254 22.8488C93.5254 22.4758 93.5971 22.1219 93.7406 21.7823C93.8841 21.4475 94.0801 21.151 94.3336 20.9023C94.5823 20.6536 94.874 20.4528 95.1945 20.3093C95.5197 20.1658 95.864 20.0941 96.2371 20.0941C96.6101 20.0941 96.9592 20.1658 97.294 20.3093C97.624 20.4528 97.9157 20.6489 98.1644 20.9023C98.4131 21.1558 98.6188 21.4475 98.767 21.7823C98.9153 22.1219 98.9918 22.4758 98.9918 22.8488ZM98.131 29.6927V51.4915H94.3001V29.6927H98.131V29.6927Z" fill="white"/>
<path d="M114.702 31.6535C115.97 32.1652 117.103 32.6865 118.112 33.2126C119.122 33.7387 119.987 34.3748 120.709 35.1113C121.432 35.8478 121.991 36.7374 122.383 37.78C122.775 38.8178 122.971 40.0756 122.971 41.5534C122.971 43.1508 122.694 44.5903 122.135 45.8672C121.575 47.149 120.757 48.249 119.672 49.1672C118.586 50.0855 117.252 50.7933 115.673 51.2907C114.095 51.7881 112.278 52.0367 110.226 52.0367C108.356 52.0367 106.706 51.8837 105.276 51.5872C103.846 51.2859 102.301 50.8172 100.642 50.1859C100.761 49.1337 100.972 48.0098 101.273 46.819C101.574 45.6281 101.938 44.4181 102.359 43.1795C105.133 44.3847 107.538 44.9873 109.59 44.9873C111.125 44.9873 112.326 44.7529 113.182 44.289C114.042 43.8203 114.468 43.0169 114.468 41.869C114.468 41.386 114.377 40.9747 114.196 40.6256C114.014 40.2812 113.775 39.9847 113.473 39.7456C113.172 39.5065 112.832 39.3008 112.455 39.1334C112.077 38.966 111.694 38.8082 111.302 38.6599L108.772 37.713C107.686 37.3208 106.701 36.8521 105.812 36.3117C104.922 35.7713 104.162 35.1304 103.53 34.3891C102.899 33.6526 102.407 32.8013 102.062 31.8353C101.713 30.8692 101.541 29.7405 101.541 28.4444C101.541 26.8471 101.813 25.4314 102.354 24.1975C102.894 22.9636 103.655 21.9162 104.635 21.0554C105.616 20.1945 106.797 19.5489 108.184 19.1137C109.571 18.6785 111.12 18.4585 112.837 18.4585C114.372 18.4585 115.855 18.6115 117.29 18.9128C118.72 19.2141 120.25 19.6493 121.876 20.2232C121.757 21.1893 121.537 22.251 121.221 23.4084C120.905 24.5706 120.504 25.661 120.025 26.6844C119.241 26.3545 118.323 26.0053 117.271 25.6466C116.214 25.2832 114.903 25.1062 113.339 25.1062C112.856 25.1062 112.397 25.1492 111.962 25.2401C111.527 25.331 111.135 25.4745 110.786 25.6705C110.436 25.8666 110.159 26.1392 109.949 26.4836C109.738 26.8327 109.633 27.2584 109.633 27.7701C109.633 28.6453 109.92 29.2909 110.494 29.7118C111.068 30.1327 111.742 30.4961 112.526 30.7974L114.702 31.6535Z" fill="#0971B7"/>
<path d="M129.438 51.4055C128.744 51.525 128.113 51.6159 127.539 51.6781C126.965 51.7402 126.41 51.7689 125.865 51.7689C125.32 51.7689 124.698 51.7307 123.99 51.6541C123.282 51.5776 122.493 51.4676 121.618 51.3146L131.743 19.0467C132.527 18.9559 133.259 18.8793 133.933 18.8219C134.612 18.7598 135.296 18.7311 135.99 18.7311C136.564 18.7311 137.185 18.7598 137.864 18.8219C138.543 18.8841 139.318 18.9559 140.193 19.0467L150.179 51.3624C148.463 51.635 146.956 51.7689 145.66 51.7689C145.057 51.7689 144.455 51.7402 143.852 51.6781C143.25 51.6159 142.599 51.525 141.91 51.4055L140.193 45.1212C139.352 45.3651 138.543 45.542 137.774 45.6616C137.004 45.7812 136.243 45.8433 135.492 45.8433C134.799 45.8433 134.091 45.7907 133.369 45.6855C132.647 45.5803 131.891 45.4225 131.107 45.212L129.438 51.4055ZM135.765 27.5405L132.737 39.1573C133.249 39.3104 133.732 39.4299 134.182 39.5208C134.636 39.6117 135.1 39.6547 135.583 39.6547C136.095 39.6547 136.602 39.6165 137.099 39.54C137.597 39.4634 138.118 39.3534 138.658 39.2004L135.765 27.5405Z" fill="#0971B7"/>
<path d="M150.586 18.9989H169.659C169.778 19.6636 169.869 20.2806 169.931 20.8497C169.994 21.4236 170.022 21.9641 170.022 22.4758C170.022 23.4706 169.903 24.6614 169.659 26.0484H158.587V31.5626H167.311C167.583 32.9161 167.717 34.0926 167.717 35.0874C167.717 36.1108 167.583 37.3017 167.311 38.6599H158.587V51.3576C156.99 51.6302 155.665 51.7641 154.608 51.7641C153.494 51.7641 152.155 51.6302 150.586 51.3576V18.9989V18.9989Z" fill="#0971B7"/>
<path d="M188.234 34.5469C188.234 35.6039 188.1 36.7756 187.828 38.0717H179.104V44.4899H190.448C190.721 45.7572 190.855 46.9003 190.855 47.9237C190.855 49.0381 190.721 50.2289 190.448 51.4963H171.103V18.9989H190.176C190.295 19.6636 190.386 20.2806 190.448 20.8497C190.511 21.4236 190.539 21.9641 190.539 22.4758C190.539 23.4706 190.42 24.6614 190.176 26.0484H179.104V31.0222H187.828C188.1 32.347 188.234 33.5235 188.234 34.5469Z" fill="#0971B7"/>
<path opacity="0.2" d="M196.594 4.56512H182.725V18.4345H196.594V4.56512Z" fill="#999999"/>
<path opacity="0.2" d="M203.29 15.565H189.42V29.4344H203.29V15.565Z" fill="#999999"/>
<path opacity="0.2" d="M189.899 12.6955H176.029V26.5649H189.899V12.6955Z" fill="#999999"/>
</svg>
